<svg xmlns="http://www.w3.org/2000/svg" viewBox="148 0 240 109" fill="#1B3A5C">
  <g transform="translate(0,109) scale(0.1,-0.1)" stroke="none">
    <path d="M1523 943 l-43 -4 0 -436 0 -436 213 6 c229 6 289 17 380 70 131 77
209 242 192 410 -12 125 -61 218 -150 286 -68 52 -103 69 -177 85 -63 15 -337
27 -415 19z m390 -174 c52 -17 121 -80 147 -135 27 -54 32 -156 11 -226 -17
-58 -69 -122 -125 -150 -33 -18 -63 -22 -163 -26 l-123 -4 0 282 0 283 108 -6
c59 -3 124 -11 145 -18z"/>
    <path d="M2580 685 c-111 -32 -177 -85 -222 -181 -28 -59 -30 -72 -26 -142 6
-96 32 -157 93 -216 68 -66 136 -90 260 -91 88 0 107 3 156 26 73 35 128 85
164 151 26 47 30 63 30 138 0 104 -22 158 -92 228 -85 84 -239 121 -363 87z
m196 -160 c59 -34 85 -81 85 -149 0 -56 -16 -99 -47 -127 -55 -48 -142 -63
-207 -35 -42 17 -83 66 -98 115 -44 149 130 276 267 196z"/>
    <path d="M3040 676 c0 -2 34 -46 76 -97 41 -52 93 -118 116 -147 l40 -52 -26
-33 c-14 -17 -51 -66 -83 -107 -31 -41 -72 -93 -90 -114 -18 -22 -33 -43 -33
-48 0 -4 44 -8 98 -8 l97 0 69 95 69 94 50 -67 c94 -127 87 -122 199 -122 65
0 98 4 98 11 0 6 -18 33 -41 60 -61 73 -189 241 -189 248 0 4 50 69 110 145
61 76 110 140 110 142 0 2 -45 4 -99 4 l-99 0 -55 -73 c-30 -40 -61 -78 -69
-84 -10 -9 -27 7 -78 73 l-64 84 -103 0 c-57 0 -103 -2 -103 -4z"/>
  </g>
</svg>
